<svg width="28" height="26" viewBox="0 0 28 26" fill="none" xmlns="http://www.w3.org/2000/svg">
<path d="M25.6211 8.33008V14.3901C25.6211 17.5201 23.0611 20.0701 19.9111 20.0701H10.8611L10.1211 20.6501C10.6111 21.6401 11.6411 22.3201 12.8111 22.3201H20.0311L23.8711 25.3301C24.0511 25.4701 24.2711 25.54 24.4911 25.54C24.6411 25.54 24.7911 25.5101 24.9211 25.4401C25.2711 25.2701 25.4911 24.92 25.4911 24.54V22.2801C26.9111 22.04 28.0011 20.8 28.0011 19.3101V11.29C28.0011 9.84009 26.9811 8.63007 25.6211 8.33008Z" fill="#6FF2D8"/>
<path d="M3.34998 18.06V21.37C3.34998 21.75 3.57001 22.1 3.90997 22.27C4.04999 22.33 4.20001 22.37 4.34998 22.37C4.57001 22.37 4.78998 22.29 4.96997 22.15L10.17 18.07H19.91C21.96 18.07 23.62 16.42 23.62 14.39V3.67999C23.62 1.65002 21.96 0 19.92 0H3.70001C1.65997 1e-07 0 1.65002 0 3.67999V14.39C0 16.31 1.46997 17.88 3.34998 18.06ZM11.83 14.77C11.28 14.77 10.82 14.32 10.82 13.77C10.82 13.22 11.27 12.77 11.82 12.77H11.83C12.38 12.77 12.83 13.22 12.83 13.77C12.83 14.32 12.38 14.77 11.83 14.77ZM9.82001 4.02002C10.59 3.41003 11.58 3.19 12.55 3.41003C13.72 3.67999 14.65 4.60999 14.92 5.78003C15.22 7.09998 14.69 8.44 13.57 9.17999C13.1 9.48999 12.81 10.07 12.81 10.69C12.81 11.25 12.36 11.69 11.81 11.69C11.26 11.69 10.81 11.25 10.81 10.69C10.81 9.39001 11.43 8.20001 12.46 7.52002C12.8 7.28998 13.11 6.84003 12.97 6.22998C12.87 5.81 12.52 5.46002 12.1 5.35999C11.59 5.23999 11.24 5.45001 11.07 5.59003C10.78 5.82001 10.62 6.16003 10.62 6.52002C10.62 7.07001 10.17 7.52002 9.62 7.52002C9.06 7.52002 8.62 7.07001 8.62 6.52002C8.62 5.53998 9.06 4.63 9.82001 4.02002Z" fill="#766EE8"/>
</svg>
