<svg width="23" height="16" viewBox="0 0 23 16" fill="none" xmlns="http://www.w3.org/2000/svg">
<path fill-rule="evenodd" clip-rule="evenodd" d="M22.5032 3.45051C22.5032 3.45051 22.2812 1.88344 21.5967 1.19519C20.7327 0.290472 19.7632 0.284921 19.3191 0.231267C16.1406 0 11.3654 0 11.3654 0C11.3654 0 6.59204 0 3.40981 0.231267C2.96577 0.284921 1.99815 0.288622 1.13228 1.19519C0.444033 1.88344 0.225717 3.45051 0.225717 3.45051C0.0851141 4.67289 0.00976827 5.90189 0 7.13228L0 8.85476C0.00994311 10.0852 0.0852884 11.3141 0.225717 12.5365C0.225717 12.5365 0.447734 14.1036 1.12673 14.8011C1.9926 15.7077 3.12858 15.6781 3.63737 15.7743C5.45606 15.9482 11.3673 16 11.3673 16C11.3673 16 16.1462 16 19.3228 15.765C19.7687 15.7114 20.7364 15.7058 21.6022 14.8011C22.2849 14.1129 22.5069 12.5439 22.5069 12.5439C22.6475 11.3216 22.7229 10.0926 22.7327 8.86216V7.13043C22.7203 5.89997 22.6431 4.671 22.5014 3.44866L22.5032 3.45051Z" fill="white"/>
<path fill-rule="evenodd" clip-rule="evenodd" d="M9.01202 10.9454V4.55688L15.1526 7.76133L9.01202 10.9454Z" fill="#282824"/>
</svg>
